# xmcd
#
# Track frame offsets: 
#        150
#        13925
#        37397
#        54050
#        71879
#        86128
#        98343
#        111565
#        122070
#        132133
#        141655
#        155238
#        170136
#
# Disc length: 2422 seconds
#
# Revision: 0
# Processed by: cddbd v1.5.2PL0 Copyright (c) Steve Scherf et al.
# Submitted via: ExactAudioCopy v0.99pb4
#
DISCID=c709740d
DTITLE=David Barrett - C Harmonica Blues Play-Along Trax CD1
DYEAR=2002
DGENRE=Blues-Playalong
TTITLE0=Track01 - intro
TTITLE1=Track02 - Key of G
TTITLE2=Track03 - Key of G
TTITLE3=Track04 - Key of G
TTITLE4=Track05 - Key of G
TTITLE5=Track06 - Key of G
TTITLE6=Track07 - Key of G
TTITLE7=Track08 - Key of G
TTITLE8=Track09 - Key of G
TTITLE9=Track10 - Key of G
TTITLE10=Track11 - Key of G
TTITLE11=Track12 - Key of G
TTITLE12=Track13 - Key of G
EXTD=
EXTT0=
EXTT1=
EXTT2=
EXTT3=
EXTT4=
EXTT5=
EXTT6=
EXTT7=
EXTT8=
EXTT9=
EXTT10=
EXTT11=
EXTT12=
PLAYORDER=
